<?xml version="1.0" standalone="no"?><!DOCTYPE svg PUBLIC "-//W3C//DTD SVG 1.1//EN" "http://www.w3.org/Graphics/SVG/1.1/DTD/svg11.dtd"><svg t="1574776287389" class="icon" viewBox="0 0 1024 1024" version="1.1" xmlns="http://www.w3.org/2000/svg" p-id="6453" xmlns:xlink="http://www.w3.org/1999/xlink" width="128" height="128"><defs><style type="text/css"></style></defs><path d="M535.210667 0h69.802666v1024h-69.802666L0 930.986667V93.013333zM358.4 706.218667l97.792 5.632-111.616-211.456 108.373333-207.36-91.136 5.632-65.706666 156.842666h-1.194667l-58.197333-150.016-88.234667 4.608 93.866667 191.658667-102.4 191.488 86.528 5.802667 64.682666-153.6h1.024c11.434667 27.136 22.869333 54.442667 34.133334 81.749333 18.944 46.421333 29.866667 72.533333 32.085333 79.018667z" fill="#1E7839" p-id="6454"></path><path d="M791.210667 837.802667h186.197333V186.197333H791.210667v93.013334h186.197333v46.592H791.210667v93.184h186.197333v46.421333H791.210667v93.184h186.197333v46.421333H791.210667v93.184h186.197333v46.592H791.210667z m-46.421334 0v-93.013334h-139.776v-46.592h139.776v-93.184h-139.776v-46.421333h139.776v-93.184h-139.776v-46.421333h139.776v-93.184h-139.776v-46.592h139.776v-93.013334h-139.776v651.605334zM605.013333 139.605333h372.394667A46.592 46.592 0 0 1 1024 186.197333v651.605334a46.592 46.592 0 0 1-46.592 46.592H605.013333a46.421333 46.421333 0 0 1-46.421333-46.592V186.197333a46.421333 46.421333 0 0 1 46.421333-46.592z" fill="#1E7839" p-id="6455"></path></svg>