<?xml version="1.0" standalone="no"?><!DOCTYPE svg PUBLIC "-//W3C//DTD SVG 1.1//EN" "http://www.w3.org/Graphics/SVG/1.1/DTD/svg11.dtd"><svg t="1574776368699" class="icon" viewBox="0 0 1081 1024" version="1.1" xmlns="http://www.w3.org/2000/svg" p-id="10516" xmlns:xlink="http://www.w3.org/1999/xlink" width="135.125" height="128"><defs><style type="text/css"></style></defs><path d="M1009.494833 868.186664c-16.466429 11.952947-37.882125 10.365446-57.181154 11.268142-112.837062-0.591422-225.61187-0.37353-338.511187-0.373529v112.339023h-70.192435C371.693065 960.230579 199.402544 931.686694 27.39217 901.586434c-0.12451-262.093259 0-524.186519 0-786.12414C201.456957 85.42429 375.521743 54.919374 549.804423 25.379409h63.998069v101.102008c120.525546 0.684804 241.237857-1.245099 361.763403 0.560294 25.929179-2.521325 46.224286 17.649273 43.640707 43.422814 1.898775 209.8925-0.435785 419.816127 1.151716 629.770882-1.151716 22.660795 2.241178 47.842914-10.863485 67.951257zM394.60288 343.719998c-50.800024-45.788502-125.007901-18.645352-186.297881-21.571333a18260.554089 18260.554089 0 0 0-0.093382 359.989138l67.110815 5.634071c-0.093382-43.920854 0-87.872835 0.12451-131.731434 27.890209 0.871569 57.181154 2.708089 82.799058-10.365446 72.060083-35.174036 84.946853-143.217469 36.35688-201.954996z m591.421844-183.558664H613.802492v111.996621a2856.162849 2856.162849 0 0 1 55.375761-11.361525c1.556373 48.776738 0.871569 97.615732 0.996079 146.51698 49.399288 0 98.923085-0.12451 148.47801 0.186765-3.766423 48.527719-26.271581 97.117692-69.538758 122.673341-39.905411 26.738493-90.767689 27.080895-135.435602 13.229173 0.12451 22.069373 0.12451 44.076491 0.186765 66.083609h270.622184v44.948061h-270.684439v56.153947h270.684439v44.979188h-270.684439v89.833865h372.222232V160.161334z m-293.15847 77.164987c78.378958 3.610786 144.30693 69.320866 148.415755 147.13953-49.49267 0.591422-99.016468 0.37353-148.540265 0.373529 0-49.212523-0.12451-98.425046 0.12451-147.513059zM277.19008 495.933304c-2.427942-37.633106-2.241178-75.266212-1.867648-112.992699 22.256138-1.058334 49.772817-5.104904 64.807383 15.750497 12.793388 21.975991 12.139712 50.955661 1.400736 73.647584-12.855643 23.158834-41.959823 20.886529-64.340471 23.594618z" fill="#D24625" p-id="10517"></path></svg>